<mxfile host="app.diagrams.net" modified="2024-01-21T22:55:11.072Z" agent="Mozilla/5.0 (Windows NT 10.0; Win64; x64) AppleWebKit/537.36 (KHTML, like Gecko) Chrome/120.0.0.0 Safari/537.36" etag="4Yn1Q9i5K3yxz0UUPrWU" version="22.1.21" type="device">
  <diagram name="PÃ¡gina-1" id="sedDtzYvS2krSi3OXhkH">
    <mxGraphModel dx="2991" dy="2235" grid="1" gridSize="10" guides="1" tooltips="1" connect="1" arrows="1" fold="1" page="1" pageScale="1" pageWidth="827" pageHeight="1169" math="0" shadow="0">
      <root>
        <mxCell id="0" />
        <mxCell id="1" parent="0" />
        <mxCell id="dkUkviuaLpOOzu5vmwg8-1" style="edgeStyle=orthogonalEdgeStyle;rounded=0;orthogonalLoop=1;jettySize=auto;html=1;endArrow=none;endFill=0;" parent="1" source="vomcdDgMOBsgs4G04NpA-14" target="vomcdDgMOBsgs4G04NpA-15" edge="1">
          <mxGeometry relative="1" as="geometry" />
        </mxCell>
        <mxCell id="dkUkviuaLpOOzu5vmwg8-5" style="edgeStyle=orthogonalEdgeStyle;rounded=0;orthogonalLoop=1;jettySize=auto;html=1;endArrow=none;endFill=0;" parent="1" source="vomcdDgMOBsgs4G04NpA-14" target="dkUkviuaLpOOzu5vmwg8-2" edge="1">
          <mxGeometry relative="1" as="geometry" />
        </mxCell>
        <mxCell id="vomcdDgMOBsgs4G04NpA-14" value="Crea" style="rhombus;whiteSpace=wrap;html=1;" parent="1" vertex="1">
          <mxGeometry x="260" y="-240" width="90" height="60" as="geometry" />
        </mxCell>
        <mxCell id="snY0qGDk97hw0430uYSI-16" style="edgeStyle=orthogonalEdgeStyle;rounded=0;orthogonalLoop=1;jettySize=auto;html=1;exitX=0;exitY=0.5;exitDx=0;exitDy=0;entryX=0;entryY=0.5;entryDx=0;entryDy=0;endArrow=none;endFill=0;" edge="1" parent="1" source="vomcdDgMOBsgs4G04NpA-15" target="snY0qGDk97hw0430uYSI-15">
          <mxGeometry relative="1" as="geometry" />
        </mxCell>
        <mxCell id="vomcdDgMOBsgs4G04NpA-15" value="USUARIO" style="rounded=0;whiteSpace=wrap;html=1;" parent="1" vertex="1">
          <mxGeometry x="55" y="-240" width="120" height="60" as="geometry" />
        </mxCell>
        <mxCell id="dkUkviuaLpOOzu5vmwg8-2" value="ARMARIO" style="rounded=0;whiteSpace=wrap;html=1;" parent="1" vertex="1">
          <mxGeometry x="450" y="-240" width="120" height="60" as="geometry" />
        </mxCell>
        <mxCell id="dkUkviuaLpOOzu5vmwg8-6" style="edgeStyle=orthogonalEdgeStyle;rounded=0;orthogonalLoop=1;jettySize=auto;html=1;endArrow=none;endFill=0;" parent="1" source="dkUkviuaLpOOzu5vmwg8-3" target="dkUkviuaLpOOzu5vmwg8-2" edge="1">
          <mxGeometry relative="1" as="geometry" />
        </mxCell>
        <mxCell id="dkUkviuaLpOOzu5vmwg8-7" style="edgeStyle=orthogonalEdgeStyle;rounded=0;orthogonalLoop=1;jettySize=auto;html=1;entryX=0;entryY=0.5;entryDx=0;entryDy=0;endArrow=none;endFill=0;" parent="1" source="dkUkviuaLpOOzu5vmwg8-3" target="dkUkviuaLpOOzu5vmwg8-4" edge="1">
          <mxGeometry relative="1" as="geometry" />
        </mxCell>
        <mxCell id="dkUkviuaLpOOzu5vmwg8-3" value="Tiene" style="rhombus;whiteSpace=wrap;html=1;" parent="1" vertex="1">
          <mxGeometry x="620" y="-240" width="90" height="60" as="geometry" />
        </mxCell>
        <mxCell id="dkUkviuaLpOOzu5vmwg8-4" value="OUTFIT" style="rounded=0;whiteSpace=wrap;html=1;" parent="1" vertex="1">
          <mxGeometry x="780" y="-240" width="120" height="60" as="geometry" />
        </mxCell>
        <mxCell id="dkUkviuaLpOOzu5vmwg8-10" style="edgeStyle=orthogonalEdgeStyle;rounded=0;orthogonalLoop=1;jettySize=auto;html=1;entryX=0.25;entryY=0;entryDx=0;entryDy=0;endArrow=none;endFill=0;" parent="1" source="dkUkviuaLpOOzu5vmwg8-8" edge="1">
          <mxGeometry relative="1" as="geometry">
            <mxPoint x="65" y="-240" as="targetPoint" />
          </mxGeometry>
        </mxCell>
        <mxCell id="dkUkviuaLpOOzu5vmwg8-8" value="" style="ellipse;whiteSpace=wrap;html=1;aspect=fixed;fillColor=#000000;" parent="1" vertex="1">
          <mxGeometry x="55" y="-290" width="20" height="20" as="geometry" />
        </mxCell>
        <mxCell id="dkUkviuaLpOOzu5vmwg8-9" value="" style="ellipse;whiteSpace=wrap;html=1;aspect=fixed;" parent="1" vertex="1">
          <mxGeometry x="155" y="-290" width="20" height="20" as="geometry" />
        </mxCell>
        <mxCell id="dkUkviuaLpOOzu5vmwg8-11" style="edgeStyle=orthogonalEdgeStyle;rounded=0;orthogonalLoop=1;jettySize=auto;html=1;entryX=0.708;entryY=0;entryDx=0;entryDy=0;entryPerimeter=0;endArrow=none;endFill=0;" parent="1" source="dkUkviuaLpOOzu5vmwg8-9" edge="1">
          <mxGeometry relative="1" as="geometry">
            <mxPoint x="164.95999999999998" y="-240" as="targetPoint" />
          </mxGeometry>
        </mxCell>
        <mxCell id="dkUkviuaLpOOzu5vmwg8-13" value="" style="ellipse;whiteSpace=wrap;html=1;aspect=fixed;" parent="1" vertex="1">
          <mxGeometry x="55" y="-150" width="20" height="20" as="geometry" />
        </mxCell>
        <mxCell id="snY0qGDk97hw0430uYSI-33" style="edgeStyle=orthogonalEdgeStyle;rounded=0;orthogonalLoop=1;jettySize=auto;html=1;entryX=0.75;entryY=1;entryDx=0;entryDy=0;endArrow=none;endFill=0;" edge="1" parent="1" source="dkUkviuaLpOOzu5vmwg8-14" target="vomcdDgMOBsgs4G04NpA-15">
          <mxGeometry relative="1" as="geometry" />
        </mxCell>
        <mxCell id="dkUkviuaLpOOzu5vmwg8-14" value="" style="ellipse;whiteSpace=wrap;html=1;aspect=fixed;" parent="1" vertex="1">
          <mxGeometry x="195" y="-100" width="20" height="20" as="geometry" />
        </mxCell>
        <mxCell id="dkUkviuaLpOOzu5vmwg8-17" style="edgeStyle=orthogonalEdgeStyle;rounded=0;orthogonalLoop=1;jettySize=auto;html=1;entryX=0.5;entryY=0;entryDx=0;entryDy=0;endArrow=none;endFill=0;" parent="1" source="dkUkviuaLpOOzu5vmwg8-15" target="vomcdDgMOBsgs4G04NpA-15" edge="1">
          <mxGeometry relative="1" as="geometry" />
        </mxCell>
        <mxCell id="dkUkviuaLpOOzu5vmwg8-15" value="" style="ellipse;whiteSpace=wrap;html=1;aspect=fixed;" parent="1" vertex="1">
          <mxGeometry x="105" y="-290" width="20" height="20" as="geometry" />
        </mxCell>
        <mxCell id="dkUkviuaLpOOzu5vmwg8-18" style="edgeStyle=orthogonalEdgeStyle;rounded=0;orthogonalLoop=1;jettySize=auto;html=1;endArrow=none;endFill=0;" parent="1" source="dkUkviuaLpOOzu5vmwg8-16" target="vomcdDgMOBsgs4G04NpA-15" edge="1">
          <mxGeometry relative="1" as="geometry" />
        </mxCell>
        <mxCell id="dkUkviuaLpOOzu5vmwg8-16" value="" style="ellipse;whiteSpace=wrap;html=1;aspect=fixed;" parent="1" vertex="1">
          <mxGeometry x="105" y="-150" width="20" height="20" as="geometry" />
        </mxCell>
        <mxCell id="dkUkviuaLpOOzu5vmwg8-19" style="edgeStyle=orthogonalEdgeStyle;rounded=0;orthogonalLoop=1;jettySize=auto;html=1;entryX=0.084;entryY=1.018;entryDx=0;entryDy=0;entryPerimeter=0;endArrow=none;endFill=0;" parent="1" source="dkUkviuaLpOOzu5vmwg8-13" target="vomcdDgMOBsgs4G04NpA-15" edge="1">
          <mxGeometry relative="1" as="geometry" />
        </mxCell>
        <mxCell id="dkUkviuaLpOOzu5vmwg8-22" value="id" style="text;html=1;align=center;verticalAlign=middle;resizable=0;points=[];autosize=1;strokeColor=none;fillColor=none;fontSize=9;" parent="1" vertex="1">
          <mxGeometry x="50" y="-315" width="30" height="20" as="geometry" />
        </mxCell>
        <mxCell id="dkUkviuaLpOOzu5vmwg8-23" value="&lt;font style=&quot;font-size: 9px;&quot;&gt;nombre&lt;/font&gt;" style="text;html=1;align=center;verticalAlign=middle;resizable=0;points=[];autosize=1;strokeColor=none;fillColor=none;fontSize=9;" parent="1" vertex="1">
          <mxGeometry x="90" y="-315" width="50" height="20" as="geometry" />
        </mxCell>
        <mxCell id="dkUkviuaLpOOzu5vmwg8-24" value="&lt;font style=&quot;font-size: 9px;&quot;&gt;username&lt;/font&gt;" style="text;html=1;align=center;verticalAlign=middle;resizable=0;points=[];autosize=1;strokeColor=none;fillColor=none;fontSize=9;" parent="1" vertex="1">
          <mxGeometry x="140" y="-315" width="60" height="20" as="geometry" />
        </mxCell>
        <mxCell id="dkUkviuaLpOOzu5vmwg8-25" value="apellido" style="text;html=1;align=center;verticalAlign=middle;resizable=0;points=[];autosize=1;strokeColor=none;fillColor=none;fontSize=9;" parent="1" vertex="1">
          <mxGeometry x="40" y="-120" width="50" height="20" as="geometry" />
        </mxCell>
        <mxCell id="dkUkviuaLpOOzu5vmwg8-26" value="email" style="text;html=1;align=center;verticalAlign=middle;resizable=0;points=[];autosize=1;strokeColor=none;fillColor=none;fontSize=9;" parent="1" vertex="1">
          <mxGeometry x="90" y="-120" width="50" height="20" as="geometry" />
        </mxCell>
        <mxCell id="dkUkviuaLpOOzu5vmwg8-27" value="pswd_hash" style="text;html=1;align=center;verticalAlign=middle;resizable=0;points=[];autosize=1;strokeColor=none;fillColor=none;fontSize=9;" parent="1" vertex="1">
          <mxGeometry x="210" y="-100" width="70" height="20" as="geometry" />
        </mxCell>
        <mxCell id="dkUkviuaLpOOzu5vmwg8-29" value="" style="ellipse;whiteSpace=wrap;html=1;aspect=fixed;fillColor=#000000;" parent="1" vertex="1">
          <mxGeometry x="460" y="-151.68" width="20" height="20" as="geometry" />
        </mxCell>
        <mxCell id="dkUkviuaLpOOzu5vmwg8-30" style="edgeStyle=orthogonalEdgeStyle;rounded=0;orthogonalLoop=1;jettySize=auto;html=1;entryX=0.166;entryY=1.028;entryDx=0;entryDy=0;entryPerimeter=0;endArrow=none;endFill=0;" parent="1" source="dkUkviuaLpOOzu5vmwg8-29" edge="1">
          <mxGeometry relative="1" as="geometry">
            <mxPoint x="469.91999999999996" y="-179.99999999999994" as="targetPoint" />
          </mxGeometry>
        </mxCell>
        <mxCell id="dkUkviuaLpOOzu5vmwg8-33" style="edgeStyle=orthogonalEdgeStyle;rounded=0;orthogonalLoop=1;jettySize=auto;html=1;entryX=0.75;entryY=1;entryDx=0;entryDy=0;endArrow=none;endFill=0;" parent="1" source="dkUkviuaLpOOzu5vmwg8-31" target="dkUkviuaLpOOzu5vmwg8-2" edge="1">
          <mxGeometry relative="1" as="geometry" />
        </mxCell>
        <mxCell id="dkUkviuaLpOOzu5vmwg8-31" value="" style="ellipse;whiteSpace=wrap;html=1;aspect=fixed;" parent="1" vertex="1">
          <mxGeometry x="530" y="-150" width="20" height="20" as="geometry" />
        </mxCell>
        <mxCell id="dkUkviuaLpOOzu5vmwg8-34" value="id" style="text;html=1;align=center;verticalAlign=middle;resizable=0;points=[];autosize=1;strokeColor=none;fillColor=none;" parent="1" vertex="1">
          <mxGeometry x="455" y="-132" width="30" height="30" as="geometry" />
        </mxCell>
        <mxCell id="dkUkviuaLpOOzu5vmwg8-35" value="cont_outfits" style="text;html=1;align=center;verticalAlign=middle;resizable=0;points=[];autosize=1;strokeColor=none;fillColor=none;" parent="1" vertex="1">
          <mxGeometry x="500" y="-132" width="80" height="30" as="geometry" />
        </mxCell>
        <mxCell id="dkUkviuaLpOOzu5vmwg8-36" value="" style="ellipse;whiteSpace=wrap;html=1;aspect=fixed;fillColor=#000000;" parent="1" vertex="1">
          <mxGeometry x="785" y="-152.36" width="20" height="20" as="geometry" />
        </mxCell>
        <mxCell id="dkUkviuaLpOOzu5vmwg8-37" style="edgeStyle=orthogonalEdgeStyle;rounded=0;orthogonalLoop=1;jettySize=auto;html=1;entryX=0.166;entryY=1.028;entryDx=0;entryDy=0;entryPerimeter=0;endArrow=none;endFill=0;" parent="1" source="dkUkviuaLpOOzu5vmwg8-36" edge="1">
          <mxGeometry relative="1" as="geometry">
            <mxPoint x="794.92" y="-180.67999999999995" as="targetPoint" />
          </mxGeometry>
        </mxCell>
        <mxCell id="dkUkviuaLpOOzu5vmwg8-38" value="id" style="text;html=1;align=center;verticalAlign=middle;resizable=0;points=[];autosize=1;strokeColor=none;fillColor=none;fontSize=9;" parent="1" vertex="1">
          <mxGeometry x="780" y="-127.68" width="30" height="20" as="geometry" />
        </mxCell>
        <mxCell id="dkUkviuaLpOOzu5vmwg8-39" value="" style="ellipse;whiteSpace=wrap;html=1;aspect=fixed;" parent="1" vertex="1">
          <mxGeometry x="870" y="-150" width="20" height="20" as="geometry" />
        </mxCell>
        <mxCell id="dkUkviuaLpOOzu5vmwg8-40" style="edgeStyle=orthogonalEdgeStyle;rounded=0;orthogonalLoop=1;jettySize=auto;html=1;entryX=0.833;entryY=1;entryDx=0;entryDy=0;entryPerimeter=0;endArrow=none;endFill=0;" parent="1" source="dkUkviuaLpOOzu5vmwg8-39" target="dkUkviuaLpOOzu5vmwg8-4" edge="1">
          <mxGeometry relative="1" as="geometry" />
        </mxCell>
        <mxCell id="dkUkviuaLpOOzu5vmwg8-41" value="Nombre" style="text;html=1;align=center;verticalAlign=middle;resizable=0;points=[];autosize=1;strokeColor=none;fillColor=none;fontSize=9;" parent="1" vertex="1">
          <mxGeometry x="850" y="-127.68" width="60" height="20" as="geometry" />
        </mxCell>
        <mxCell id="dkUkviuaLpOOzu5vmwg8-43" style="edgeStyle=orthogonalEdgeStyle;rounded=0;orthogonalLoop=1;jettySize=auto;html=1;entryX=0.75;entryY=0;entryDx=0;entryDy=0;endArrow=none;endFill=0;" parent="1" source="dkUkviuaLpOOzu5vmwg8-42" target="dkUkviuaLpOOzu5vmwg8-4" edge="1">
          <mxGeometry relative="1" as="geometry" />
        </mxCell>
        <mxCell id="dkUkviuaLpOOzu5vmwg8-42" value="" style="ellipse;whiteSpace=wrap;html=1;aspect=fixed;" parent="1" vertex="1">
          <mxGeometry x="860" y="-295" width="20" height="20" as="geometry" />
        </mxCell>
        <mxCell id="dkUkviuaLpOOzu5vmwg8-44" value="descripcion" style="text;html=1;align=center;verticalAlign=middle;resizable=0;points=[];autosize=1;strokeColor=none;fillColor=none;fontSize=9;" parent="1" vertex="1">
          <mxGeometry x="835" y="-315" width="70" height="20" as="geometry" />
        </mxCell>
        <mxCell id="dkUkviuaLpOOzu5vmwg8-45" value="Prenda" style="rounded=0;whiteSpace=wrap;html=1;" parent="1" vertex="1">
          <mxGeometry x="1110" y="-240" width="120" height="60" as="geometry" />
        </mxCell>
        <mxCell id="dkUkviuaLpOOzu5vmwg8-47" style="edgeStyle=orthogonalEdgeStyle;rounded=0;orthogonalLoop=1;jettySize=auto;html=1;endArrow=none;endFill=0;" parent="1" source="dkUkviuaLpOOzu5vmwg8-46" target="dkUkviuaLpOOzu5vmwg8-45" edge="1">
          <mxGeometry relative="1" as="geometry" />
        </mxCell>
        <mxCell id="dkUkviuaLpOOzu5vmwg8-48" style="edgeStyle=orthogonalEdgeStyle;rounded=0;orthogonalLoop=1;jettySize=auto;html=1;exitX=0;exitY=0.5;exitDx=0;exitDy=0;entryX=1;entryY=0.5;entryDx=0;entryDy=0;endArrow=none;endFill=0;" parent="1" source="dkUkviuaLpOOzu5vmwg8-46" target="dkUkviuaLpOOzu5vmwg8-4" edge="1">
          <mxGeometry relative="1" as="geometry" />
        </mxCell>
        <mxCell id="dkUkviuaLpOOzu5vmwg8-46" value="Tiene" style="rhombus;whiteSpace=wrap;html=1;" parent="1" vertex="1">
          <mxGeometry x="960" y="-240" width="90" height="60" as="geometry" />
        </mxCell>
        <mxCell id="dkUkviuaLpOOzu5vmwg8-53" value="" style="ellipse;whiteSpace=wrap;html=1;aspect=fixed;fillColor=#000000;" parent="1" vertex="1">
          <mxGeometry x="1115" y="-152.36" width="20" height="20" as="geometry" />
        </mxCell>
        <mxCell id="dkUkviuaLpOOzu5vmwg8-54" style="edgeStyle=orthogonalEdgeStyle;rounded=0;orthogonalLoop=1;jettySize=auto;html=1;entryX=0.166;entryY=1.028;entryDx=0;entryDy=0;entryPerimeter=0;endArrow=none;endFill=0;" parent="1" source="dkUkviuaLpOOzu5vmwg8-53" edge="1">
          <mxGeometry relative="1" as="geometry">
            <mxPoint x="1124.92" y="-180.67999999999995" as="targetPoint" />
          </mxGeometry>
        </mxCell>
        <mxCell id="dkUkviuaLpOOzu5vmwg8-55" value="id" style="text;html=1;align=center;verticalAlign=middle;resizable=0;points=[];autosize=1;strokeColor=none;fillColor=none;fontSize=9;" parent="1" vertex="1">
          <mxGeometry x="1110" y="-127.68" width="30" height="20" as="geometry" />
        </mxCell>
        <mxCell id="dkUkviuaLpOOzu5vmwg8-63" value="SEGUIDOR" style="rounded=0;whiteSpace=wrap;html=1;" parent="1" vertex="1">
          <mxGeometry x="-300" y="-240" width="120" height="60" as="geometry" />
        </mxCell>
        <mxCell id="dkUkviuaLpOOzu5vmwg8-66" style="edgeStyle=orthogonalEdgeStyle;rounded=0;orthogonalLoop=1;jettySize=auto;html=1;exitX=1;exitY=0.5;exitDx=0;exitDy=0;endArrow=none;endFill=0;" parent="1" source="dkUkviuaLpOOzu5vmwg8-65" target="vomcdDgMOBsgs4G04NpA-15" edge="1">
          <mxGeometry relative="1" as="geometry" />
        </mxCell>
        <mxCell id="dkUkviuaLpOOzu5vmwg8-67" style="edgeStyle=orthogonalEdgeStyle;rounded=0;orthogonalLoop=1;jettySize=auto;html=1;exitX=0;exitY=0.5;exitDx=0;exitDy=0;endArrow=none;endFill=0;" parent="1" source="dkUkviuaLpOOzu5vmwg8-65" target="dkUkviuaLpOOzu5vmwg8-63" edge="1">
          <mxGeometry relative="1" as="geometry" />
        </mxCell>
        <mxCell id="dkUkviuaLpOOzu5vmwg8-65" value="Tiene" style="rhombus;whiteSpace=wrap;html=1;" parent="1" vertex="1">
          <mxGeometry x="-110" y="-240" width="90" height="60" as="geometry" />
        </mxCell>
        <mxCell id="dkUkviuaLpOOzu5vmwg8-68" style="edgeStyle=orthogonalEdgeStyle;rounded=0;orthogonalLoop=1;jettySize=auto;html=1;entryX=0.25;entryY=0;entryDx=0;entryDy=0;endArrow=none;endFill=0;" parent="1" source="dkUkviuaLpOOzu5vmwg8-69" edge="1">
          <mxGeometry relative="1" as="geometry">
            <mxPoint x="-285" y="-240" as="targetPoint" />
          </mxGeometry>
        </mxCell>
        <mxCell id="dkUkviuaLpOOzu5vmwg8-69" value="" style="ellipse;whiteSpace=wrap;html=1;aspect=fixed;fillColor=#000000;" parent="1" vertex="1">
          <mxGeometry x="-295" y="-290" width="20" height="20" as="geometry" />
        </mxCell>
        <mxCell id="dkUkviuaLpOOzu5vmwg8-70" value="id" style="text;html=1;align=center;verticalAlign=middle;resizable=0;points=[];autosize=1;strokeColor=none;fillColor=none;fontSize=9;" parent="1" vertex="1">
          <mxGeometry x="-300" y="-310" width="30" height="20" as="geometry" />
        </mxCell>
        <mxCell id="dkUkviuaLpOOzu5vmwg8-71" value="" style="ellipse;whiteSpace=wrap;html=1;aspect=fixed;" parent="1" vertex="1">
          <mxGeometry x="-295" y="-151.86" width="20" height="20" as="geometry" />
        </mxCell>
        <mxCell id="dkUkviuaLpOOzu5vmwg8-72" style="edgeStyle=orthogonalEdgeStyle;rounded=0;orthogonalLoop=1;jettySize=auto;html=1;entryX=0.084;entryY=1.018;entryDx=0;entryDy=0;entryPerimeter=0;endArrow=none;endFill=0;" parent="1" source="dkUkviuaLpOOzu5vmwg8-71" edge="1">
          <mxGeometry relative="1" as="geometry">
            <mxPoint x="-285" y="-180.86" as="targetPoint" />
          </mxGeometry>
        </mxCell>
        <mxCell id="dkUkviuaLpOOzu5vmwg8-75" value="" style="ellipse;whiteSpace=wrap;html=1;aspect=fixed;" parent="1" vertex="1">
          <mxGeometry x="-220" y="-151" width="20" height="20" as="geometry" />
        </mxCell>
        <mxCell id="dkUkviuaLpOOzu5vmwg8-76" style="edgeStyle=orthogonalEdgeStyle;rounded=0;orthogonalLoop=1;jettySize=auto;html=1;entryX=0.084;entryY=1.018;entryDx=0;entryDy=0;entryPerimeter=0;endArrow=none;endFill=0;" parent="1" source="dkUkviuaLpOOzu5vmwg8-75" edge="1">
          <mxGeometry relative="1" as="geometry">
            <mxPoint x="-210" y="-180" as="targetPoint" />
          </mxGeometry>
        </mxCell>
        <mxCell id="dkUkviuaLpOOzu5vmwg8-77" value="id_seguidor" style="text;html=1;align=center;verticalAlign=middle;resizable=0;points=[];autosize=1;strokeColor=none;fillColor=none;fontSize=9;" parent="1" vertex="1">
          <mxGeometry x="-320" y="-123.86" width="70" height="20" as="geometry" />
        </mxCell>
        <mxCell id="dkUkviuaLpOOzu5vmwg8-78" value="id_seguido" style="text;html=1;align=center;verticalAlign=middle;resizable=0;points=[];autosize=1;strokeColor=none;fillColor=none;fontSize=9;" parent="1" vertex="1">
          <mxGeometry x="-245" y="-123.86" width="70" height="20" as="geometry" />
        </mxCell>
        <mxCell id="dkUkviuaLpOOzu5vmwg8-80" value="(1,N)" style="text;html=1;align=center;verticalAlign=middle;resizable=0;points=[];autosize=1;strokeColor=none;fillColor=none;" parent="1" vertex="1">
          <mxGeometry y="-240" width="50" height="30" as="geometry" />
        </mxCell>
        <mxCell id="dkUkviuaLpOOzu5vmwg8-81" value="(1,N)" style="text;html=1;align=center;verticalAlign=middle;resizable=0;points=[];autosize=1;strokeColor=none;fillColor=none;" parent="1" vertex="1">
          <mxGeometry x="-180" y="-240" width="50" height="30" as="geometry" />
        </mxCell>
        <mxCell id="dkUkviuaLpOOzu5vmwg8-82" value="N:M" style="text;html=1;align=center;verticalAlign=middle;resizable=0;points=[];autosize=1;strokeColor=none;fillColor=none;fontStyle=1" parent="1" vertex="1">
          <mxGeometry x="-90" y="-282" width="50" height="30" as="geometry" />
        </mxCell>
        <mxCell id="dkUkviuaLpOOzu5vmwg8-83" value="(1,N)" style="text;html=1;align=center;verticalAlign=middle;resizable=0;points=[];autosize=1;strokeColor=none;fillColor=none;" parent="1" vertex="1">
          <mxGeometry x="185" y="-242" width="50" height="30" as="geometry" />
        </mxCell>
        <mxCell id="dkUkviuaLpOOzu5vmwg8-84" value="(1,1)" style="text;html=1;align=center;verticalAlign=middle;resizable=0;points=[];autosize=1;strokeColor=none;fillColor=none;" parent="1" vertex="1">
          <mxGeometry x="389" y="-242" width="50" height="30" as="geometry" />
        </mxCell>
        <mxCell id="dkUkviuaLpOOzu5vmwg8-85" value="1:N" style="text;html=1;align=center;verticalAlign=middle;resizable=0;points=[];autosize=1;strokeColor=none;fillColor=none;fontStyle=1" parent="1" vertex="1">
          <mxGeometry x="285" y="-275" width="40" height="30" as="geometry" />
        </mxCell>
        <mxCell id="snY0qGDk97hw0430uYSI-1" value="(1,N)" style="text;html=1;align=center;verticalAlign=middle;resizable=0;points=[];autosize=1;strokeColor=none;fillColor=none;" vertex="1" parent="1">
          <mxGeometry x="900" y="-260" width="50" height="30" as="geometry" />
        </mxCell>
        <mxCell id="snY0qGDk97hw0430uYSI-2" value="(1,N)" style="text;html=1;align=center;verticalAlign=middle;resizable=0;points=[];autosize=1;strokeColor=none;fillColor=none;" vertex="1" parent="1">
          <mxGeometry x="1060" y="-260" width="50" height="30" as="geometry" />
        </mxCell>
        <mxCell id="snY0qGDk97hw0430uYSI-3" value="&lt;b&gt;N:M&lt;/b&gt;" style="text;html=1;align=center;verticalAlign=middle;resizable=0;points=[];autosize=1;strokeColor=none;fillColor=none;" vertex="1" parent="1">
          <mxGeometry x="980" y="-270" width="50" height="30" as="geometry" />
        </mxCell>
        <mxCell id="snY0qGDk97hw0430uYSI-4" value="(1,N)" style="text;html=1;align=center;verticalAlign=middle;resizable=0;points=[];autosize=1;strokeColor=none;fillColor=none;" vertex="1" parent="1">
          <mxGeometry x="565" y="-262" width="50" height="30" as="geometry" />
        </mxCell>
        <mxCell id="snY0qGDk97hw0430uYSI-5" value="(1,1)" style="text;html=1;align=center;verticalAlign=middle;resizable=0;points=[];autosize=1;strokeColor=none;fillColor=none;" vertex="1" parent="1">
          <mxGeometry x="730" y="-260" width="50" height="30" as="geometry" />
        </mxCell>
        <mxCell id="snY0qGDk97hw0430uYSI-6" value="&lt;b&gt;1:N&lt;/b&gt;" style="text;html=1;align=center;verticalAlign=middle;resizable=0;points=[];autosize=1;strokeColor=none;fillColor=none;" vertex="1" parent="1">
          <mxGeometry x="645" y="-270" width="40" height="30" as="geometry" />
        </mxCell>
        <mxCell id="snY0qGDk97hw0430uYSI-8" style="edgeStyle=orthogonalEdgeStyle;rounded=0;orthogonalLoop=1;jettySize=auto;html=1;entryX=0.5;entryY=0;entryDx=0;entryDy=0;endArrow=none;endFill=0;" edge="1" parent="1" source="snY0qGDk97hw0430uYSI-7" target="dkUkviuaLpOOzu5vmwg8-2">
          <mxGeometry relative="1" as="geometry">
            <Array as="points">
              <mxPoint x="510" y="-292" />
            </Array>
          </mxGeometry>
        </mxCell>
        <mxCell id="snY0qGDk97hw0430uYSI-7" value="" style="ellipse;whiteSpace=wrap;html=1;aspect=fixed;" vertex="1" parent="1">
          <mxGeometry x="500" y="-295" width="20" height="20" as="geometry" />
        </mxCell>
        <mxCell id="snY0qGDk97hw0430uYSI-9" value="cont_likes" style="text;html=1;align=center;verticalAlign=middle;resizable=0;points=[];autosize=1;strokeColor=none;fillColor=none;" vertex="1" parent="1">
          <mxGeometry x="470" y="-322" width="80" height="30" as="geometry" />
        </mxCell>
        <mxCell id="snY0qGDk97hw0430uYSI-25" style="edgeStyle=orthogonalEdgeStyle;rounded=0;orthogonalLoop=1;jettySize=auto;html=1;endArrow=none;endFill=0;" edge="1" parent="1" source="snY0qGDk97hw0430uYSI-15">
          <mxGeometry relative="1" as="geometry">
            <mxPoint x="370" y="40" as="targetPoint" />
          </mxGeometry>
        </mxCell>
        <mxCell id="snY0qGDk97hw0430uYSI-26" style="edgeStyle=orthogonalEdgeStyle;rounded=0;orthogonalLoop=1;jettySize=auto;html=1;entryX=0;entryY=0.5;entryDx=0;entryDy=0;endArrow=none;endFill=0;" edge="1" parent="1" source="snY0qGDk97hw0430uYSI-15" target="dkUkviuaLpOOzu5vmwg8-2">
          <mxGeometry relative="1" as="geometry" />
        </mxCell>
        <mxCell id="snY0qGDk97hw0430uYSI-15" value="Dar like" style="rhombus;whiteSpace=wrap;html=1;" vertex="1" parent="1">
          <mxGeometry x="260" y="10" width="90" height="60" as="geometry" />
        </mxCell>
        <mxCell id="snY0qGDk97hw0430uYSI-18" value="(1,N)" style="text;html=1;align=center;verticalAlign=middle;resizable=0;points=[];autosize=1;strokeColor=none;fillColor=none;" vertex="1" parent="1">
          <mxGeometry x="-10" y="-200" width="50" height="30" as="geometry" />
        </mxCell>
        <mxCell id="snY0qGDk97hw0430uYSI-22" style="edgeStyle=orthogonalEdgeStyle;rounded=0;orthogonalLoop=1;jettySize=auto;html=1;entryX=0.75;entryY=0;entryDx=0;entryDy=0;endArrow=none;endFill=0;" edge="1" parent="1" source="snY0qGDk97hw0430uYSI-21" target="dkUkviuaLpOOzu5vmwg8-45">
          <mxGeometry relative="1" as="geometry" />
        </mxCell>
        <mxCell id="snY0qGDk97hw0430uYSI-21" value="" style="ellipse;whiteSpace=wrap;html=1;aspect=fixed;fillColor=#FFFFFF;" vertex="1" parent="1">
          <mxGeometry x="1190" y="-295" width="20" height="20" as="geometry" />
        </mxCell>
        <mxCell id="snY0qGDk97hw0430uYSI-23" value="nombre" style="text;html=1;align=center;verticalAlign=middle;resizable=0;points=[];autosize=1;strokeColor=none;fillColor=none;fontSize=9;" vertex="1" parent="1">
          <mxGeometry x="1175" y="-315" width="50" height="20" as="geometry" />
        </mxCell>
        <mxCell id="snY0qGDk97hw0430uYSI-27" value="(1,N)" style="text;html=1;align=center;verticalAlign=middle;resizable=0;points=[];autosize=1;strokeColor=none;fillColor=none;" vertex="1" parent="1">
          <mxGeometry x="350" y="-190" width="50" height="30" as="geometry" />
        </mxCell>
        <mxCell id="snY0qGDk97hw0430uYSI-28" value="N:M" style="text;html=1;align=center;verticalAlign=middle;resizable=0;points=[];autosize=1;strokeColor=none;fillColor=none;fontStyle=1" vertex="1" parent="1">
          <mxGeometry x="280" y="-20" width="50" height="30" as="geometry" />
        </mxCell>
        <mxCell id="snY0qGDk97hw0430uYSI-30" style="edgeStyle=orthogonalEdgeStyle;rounded=0;orthogonalLoop=1;jettySize=auto;html=1;entryX=1;entryY=0.75;entryDx=0;entryDy=0;endArrow=none;endFill=0;" edge="1" parent="1" source="snY0qGDk97hw0430uYSI-29" target="vomcdDgMOBsgs4G04NpA-15">
          <mxGeometry relative="1" as="geometry" />
        </mxCell>
        <mxCell id="snY0qGDk97hw0430uYSI-29" value="" style="ellipse;whiteSpace=wrap;html=1;aspect=fixed;" vertex="1" parent="1">
          <mxGeometry x="215" y="-170" width="20" height="20" as="geometry" />
        </mxCell>
        <mxCell id="snY0qGDk97hw0430uYSI-31" value="fecha_nacimiento" style="text;html=1;align=center;verticalAlign=middle;resizable=0;points=[];autosize=1;strokeColor=none;fillColor=none;fontSize=9;" vertex="1" parent="1">
          <mxGeometry x="185" y="-150" width="90" height="20" as="geometry" />
        </mxCell>
        <mxCell id="snY0qGDk97hw0430uYSI-35" style="edgeStyle=orthogonalEdgeStyle;rounded=0;orthogonalLoop=1;jettySize=auto;html=1;entryX=0.75;entryY=1;entryDx=0;entryDy=0;endArrow=none;endFill=0;" edge="1" parent="1" source="snY0qGDk97hw0430uYSI-34" target="vomcdDgMOBsgs4G04NpA-15">
          <mxGeometry relative="1" as="geometry" />
        </mxCell>
        <mxCell id="snY0qGDk97hw0430uYSI-34" value="" style="ellipse;whiteSpace=wrap;html=1;aspect=fixed;" vertex="1" parent="1">
          <mxGeometry x="195" y="-70" width="20" height="20" as="geometry" />
        </mxCell>
        <mxCell id="snY0qGDk97hw0430uYSI-36" value="" style="ellipse;whiteSpace=wrap;html=1;aspect=fixed;" vertex="1" parent="1">
          <mxGeometry x="85" y="-80" width="20" height="20" as="geometry" />
        </mxCell>
        <mxCell id="snY0qGDk97hw0430uYSI-37" style="edgeStyle=orthogonalEdgeStyle;rounded=0;orthogonalLoop=1;jettySize=auto;html=1;entryX=0.333;entryY=1;entryDx=0;entryDy=0;entryPerimeter=0;endArrow=none;endFill=0;" edge="1" parent="1" source="snY0qGDk97hw0430uYSI-36" target="vomcdDgMOBsgs4G04NpA-15">
          <mxGeometry relative="1" as="geometry" />
        </mxCell>
        <mxCell id="snY0qGDk97hw0430uYSI-38" value="cont_seguidores" style="text;html=1;align=center;verticalAlign=middle;resizable=0;points=[];autosize=1;strokeColor=none;fillColor=none;fontSize=9;" vertex="1" parent="1">
          <mxGeometry x="50" y="-60" width="90" height="20" as="geometry" />
        </mxCell>
        <mxCell id="snY0qGDk97hw0430uYSI-39" value="salt" style="text;html=1;align=center;verticalAlign=middle;resizable=0;points=[];autosize=1;strokeColor=none;fillColor=none;fontSize=9;" vertex="1" parent="1">
          <mxGeometry x="225" y="-70" width="40" height="20" as="geometry" />
        </mxCell>
        <mxCell id="snY0qGDk97hw0430uYSI-41" style="edgeStyle=orthogonalEdgeStyle;rounded=0;orthogonalLoop=1;jettySize=auto;html=1;entryX=1;entryY=0;entryDx=0;entryDy=0;endArrow=none;endFill=0;" edge="1" parent="1" source="snY0qGDk97hw0430uYSI-40" target="vomcdDgMOBsgs4G04NpA-15">
          <mxGeometry relative="1" as="geometry">
            <Array as="points">
              <mxPoint x="175" y="-270" />
            </Array>
          </mxGeometry>
        </mxCell>
        <mxCell id="snY0qGDk97hw0430uYSI-40" value="" style="ellipse;whiteSpace=wrap;html=1;aspect=fixed;" vertex="1" parent="1">
          <mxGeometry x="205" y="-290" width="20" height="20" as="geometry" />
        </mxCell>
        <mxCell id="snY0qGDk97hw0430uYSI-42" value="&lt;font style=&quot;font-size: 9px;&quot;&gt;privacidad&lt;/font&gt;" style="text;html=1;align=center;verticalAlign=middle;resizable=0;points=[];autosize=1;strokeColor=none;fillColor=none;fontSize=9;" vertex="1" parent="1">
          <mxGeometry x="220" y="-302" width="60" height="20" as="geometry" />
        </mxCell>
        <mxCell id="snY0qGDk97hw0430uYSI-53" style="edgeStyle=orthogonalEdgeStyle;rounded=0;orthogonalLoop=1;jettySize=auto;html=1;exitX=0.25;exitY=0;exitDx=0;exitDy=0;entryX=0.5;entryY=1;entryDx=0;entryDy=0;endArrow=none;endFill=0;" edge="1" parent="1" source="snY0qGDk97hw0430uYSI-43" target="snY0qGDk97hw0430uYSI-52">
          <mxGeometry relative="1" as="geometry" />
        </mxCell>
        <mxCell id="snY0qGDk97hw0430uYSI-43" value="Tag" style="rounded=0;whiteSpace=wrap;html=1;" vertex="1" parent="1">
          <mxGeometry x="1460" y="-240" width="120" height="60" as="geometry" />
        </mxCell>
        <mxCell id="snY0qGDk97hw0430uYSI-46" style="edgeStyle=orthogonalEdgeStyle;rounded=0;orthogonalLoop=1;jettySize=auto;html=1;entryX=1;entryY=0.5;entryDx=0;entryDy=0;endArrow=none;endFill=0;" edge="1" parent="1" source="snY0qGDk97hw0430uYSI-44" target="dkUkviuaLpOOzu5vmwg8-45">
          <mxGeometry relative="1" as="geometry" />
        </mxCell>
        <mxCell id="snY0qGDk97hw0430uYSI-47" style="edgeStyle=orthogonalEdgeStyle;rounded=0;orthogonalLoop=1;jettySize=auto;html=1;entryX=0;entryY=0.5;entryDx=0;entryDy=0;endArrow=none;endFill=0;" edge="1" parent="1" source="snY0qGDk97hw0430uYSI-44" target="snY0qGDk97hw0430uYSI-43">
          <mxGeometry relative="1" as="geometry" />
        </mxCell>
        <mxCell id="snY0qGDk97hw0430uYSI-44" value="Contiene" style="rhombus;whiteSpace=wrap;html=1;" vertex="1" parent="1">
          <mxGeometry x="1300" y="-240" width="90" height="60" as="geometry" />
        </mxCell>
        <mxCell id="snY0qGDk97hw0430uYSI-48" value="(1,N)" style="text;html=1;align=center;verticalAlign=middle;resizable=0;points=[];autosize=1;strokeColor=none;fillColor=none;" vertex="1" parent="1">
          <mxGeometry x="1230" y="-252" width="50" height="30" as="geometry" />
        </mxCell>
        <mxCell id="snY0qGDk97hw0430uYSI-49" value="(1,N)" style="text;html=1;align=center;verticalAlign=middle;resizable=0;points=[];autosize=1;strokeColor=none;fillColor=none;" vertex="1" parent="1">
          <mxGeometry x="1410" y="-252" width="50" height="30" as="geometry" />
        </mxCell>
        <mxCell id="snY0qGDk97hw0430uYSI-50" value="&lt;b&gt;N:M&lt;/b&gt;" style="text;html=1;align=center;verticalAlign=middle;resizable=0;points=[];autosize=1;strokeColor=none;fillColor=none;" vertex="1" parent="1">
          <mxGeometry x="1320" y="-272" width="50" height="30" as="geometry" />
        </mxCell>
        <mxCell id="snY0qGDk97hw0430uYSI-54" style="edgeStyle=orthogonalEdgeStyle;rounded=0;orthogonalLoop=1;jettySize=auto;html=1;entryX=0.75;entryY=0;entryDx=0;entryDy=0;endArrow=none;endFill=0;" edge="1" parent="1" source="snY0qGDk97hw0430uYSI-51" target="snY0qGDk97hw0430uYSI-43">
          <mxGeometry relative="1" as="geometry" />
        </mxCell>
        <mxCell id="snY0qGDk97hw0430uYSI-51" value="" style="ellipse;whiteSpace=wrap;html=1;aspect=fixed;fillColor=#FFFFFF;" vertex="1" parent="1">
          <mxGeometry x="1540" y="-280" width="20" height="20" as="geometry" />
        </mxCell>
        <mxCell id="snY0qGDk97hw0430uYSI-52" value="" style="ellipse;whiteSpace=wrap;html=1;aspect=fixed;fillColor=#000000;" vertex="1" parent="1">
          <mxGeometry x="1480" y="-280" width="20" height="20" as="geometry" />
        </mxCell>
        <mxCell id="snY0qGDk97hw0430uYSI-55" value="id" style="text;html=1;align=center;verticalAlign=middle;resizable=0;points=[];autosize=1;strokeColor=none;fillColor=none;fontSize=9;" vertex="1" parent="1">
          <mxGeometry x="1475" y="-302" width="30" height="20" as="geometry" />
        </mxCell>
        <mxCell id="snY0qGDk97hw0430uYSI-56" value="tag" style="text;html=1;align=center;verticalAlign=middle;resizable=0;points=[];autosize=1;strokeColor=none;fillColor=none;fontSize=9;" vertex="1" parent="1">
          <mxGeometry x="1530" y="-302" width="40" height="20" as="geometry" />
        </mxCell>
      </root>
    </mxGraphModel>
  </diagram>
</mxfile>
